<svg width="29" height="36" viewBox="0 0 29 36" fill="none" xmlns="http://www.w3.org/2000/svg">
<path fill-rule="evenodd" clip-rule="evenodd" d="M7.89285 3.71428C7.89285 2.1955 9.12407 0.964283 10.6429 0.964283H18.8571C20.3759 0.964283 21.6071 2.1955 21.6071 3.71428V4.76785H26.4554C27.8607 4.76785 29 5.90713 29 7.3125C29 8.28597 28.4534 9.13177 27.6503 9.55969L25.59 31.6342C25.4101 33.5619 23.7923 35.0357 21.8562 35.0357H7.64374C5.70768 35.0357 4.08989 33.5619 3.90997 31.6342L1.84968 9.55968C1.04663 9.13176 0.5 8.28597 0.5 7.3125C0.5 5.90713 1.63928 4.76785 3.04464 4.76785H7.89285V3.71428ZM20.1071 3.71428V4.76785H9.39285V3.71428C9.39285 3.02393 9.9525 2.46428 10.6429 2.46428H18.8571C19.5475 2.46428 20.1071 3.02393 20.1071 3.71428ZM3.04464 6.26785H26.4554C27.0323 6.26785 27.5 6.73556 27.5 7.3125C27.5 7.88944 27.0323 8.35714 26.4554 8.35714H3.04464C2.4677 8.35714 2 7.88944 2 7.3125C2 6.73556 2.4677 6.26785 3.04464 6.26785ZM3.38397 9.85714L5.40348 31.4948C5.51143 32.6514 6.48211 33.5357 7.64374 33.5357H21.8562C23.0179 33.5357 23.9886 32.6514 24.0965 31.4948L26.116 9.85714H3.38397ZM14.7366 11.8929C14.3224 11.8929 13.9866 12.2286 13.9866 12.6429V30.4821C13.9866 30.8964 14.3224 31.2321 14.7366 31.2321H14.7634C15.1776 31.2321 15.5134 30.8964 15.5134 30.4821V12.6429C15.5134 12.2286 15.1776 11.8929 14.7634 11.8929H14.7366ZM6.95129 12.7715C6.90799 12.3596 7.20684 11.9905 7.61879 11.9472L7.64543 11.9444C8.05737 11.9011 8.42642 12.2 8.46971 12.6119L10.3344 30.3535C10.3777 30.7654 10.0789 31.1345 9.66693 31.1778L9.64029 31.1806C9.22835 31.2239 8.8593 30.925 8.816 30.5131L6.95129 12.7715ZM21.8546 11.9444C21.4426 11.9011 21.0736 12.2 21.0303 12.6119L19.1656 30.3535C19.1223 30.7654 19.4211 31.1345 19.8331 31.1778L19.8597 31.1806C20.2717 31.2239 20.6407 30.925 20.684 30.5131L22.5487 12.7715C22.592 12.3596 22.2932 11.9905 21.8812 11.9472L21.8546 11.9444Z" fill="black"/>
</svg>