<svg width="36" height="36" viewBox="0 0 36 36" fill="none" xmlns="http://www.w3.org/2000/svg">
<path fill-rule="evenodd" clip-rule="evenodd" d="M31.4544 1.93943C30.8692 1.3535 29.9211 1.35355 29.3361 1.93941L29.3361 1.93943L27.5724 3.70567L31.8074 7.9468L33.5696 6.18209C34.1552 5.59556 34.1552 4.64418 33.5696 4.05768L31.4544 1.93944L31.4544 1.93943ZM28.2747 0.879531C29.4457 -0.293202 31.3447 -0.293153 32.5158 0.879534L34.631 2.99779C35.8014 4.16992 35.8014 6.06984 34.631 7.24197L32.8665 9.00898L32.3381 9.53817L32.3365 9.53969L31.8074 10.0696L18.5686 23.3275L18.0943 23.8025C18.0067 23.9123 17.8874 23.9987 17.7443 24.046L11.204 26.2106C10.2573 26.5239 9.34361 25.6547 9.60746 24.6918L11.488 17.8287C11.5266 17.6879 11.6028 17.5674 11.7028 17.4753L12.2139 16.9635L25.4526 3.70567L25.9818 3.17573L25.9818 3.17572L26.5117 2.64502L28.2747 0.879546L28.2747 0.879531ZM12.8218 18.6337L11.1763 24.6388L16.92 22.7379L12.8218 18.6337ZM13.8037 17.4942L26.5117 4.76787L30.7467 9.00898L18.0387 21.7353L13.8037 17.4942ZM5.75 4.00592C2.57437 4.00592 0 6.58029 0 9.75592V29.7559C0 32.9315 2.57435 35.5059 5.75 35.5059H25.7067C28.8823 35.5059 31.4567 32.9315 31.4567 29.7559V19.7559C31.4567 19.3417 31.1209 19.0059 30.7067 19.0059C30.2925 19.0059 29.9567 19.3417 29.9567 19.7559V29.7559C29.9567 32.1031 28.0539 34.0059 25.7067 34.0059H5.75C3.40279 34.0059 1.5 32.1031 1.5 29.7559V9.75592C1.5 7.40871 3.40279 5.50592 5.75 5.50592H15.7283C16.1425 5.50592 16.4783 5.17013 16.4783 4.75592C16.4783 4.34171 16.1425 4.00592 15.7283 4.00592H5.75Z" fill="black"/>
</svg>