<svg width="36" height="36" viewBox="0 0 36 36" fill="none" xmlns="http://www.w3.org/2000/svg">
<circle cx="11" cy="33" r="3" fill="black"/>
<path d="M6.44466 4.98019C6.20575 2.30442 8.31359 0 11 0V0C13.6864 0 15.7942 2.30443 15.5553 4.98019L13.7223 25.5099C13.5965 26.9196 12.4153 28 11 28V28C9.58471 28 8.40353 26.9196 8.27767 25.5099L6.44466 4.98019Z" fill="black"/>
<circle cx="24" cy="33" r="3" fill="black"/>
<path d="M19.4447 4.98019C19.2058 2.30442 21.3136 0 24 0V0C26.6864 0 28.7942 2.30443 28.5553 4.98019L26.7223 25.5099C26.5965 26.9196 25.4153 28 24 28V28C22.5847 28 21.4035 26.9196 21.2777 25.5099L19.4447 4.98019Z" fill="black"/>
</svg>
