<svg width="36" height="36" viewBox="0 0 36 36" fill="none" xmlns="http://www.w3.org/2000/svg">
<rect width="36" height="36" fill="white"/>
<circle cx="18" cy="33" r="3" fill="black"/>
<path d="M13.4447 4.98019C13.2058 2.30442 15.3136 0 18 0V0C20.6864 0 22.7942 2.30443 22.5553 4.98019L20.7223 25.5099C20.5965 26.9196 19.4153 28 18 28V28C16.5847 28 15.4035 26.9196 15.2777 25.5099L13.4447 4.98019Z" fill="black"/>
<circle cx="5" cy="33" r="3" fill="black"/>
<path d="M0.44466 4.98019C0.205752 2.30442 2.31359 0 5 0V0C7.68641 0 9.79425 2.30443 9.55534 4.98019L7.72233 25.5099C7.59647 26.9196 6.41529 28 5 28V28C3.58471 28 2.40353 26.9196 2.27767 25.5099L0.44466 4.98019Z" fill="black"/>
<circle cx="31" cy="33" r="3" fill="black"/>
<path d="M26.4447 4.98019C26.2058 2.30442 28.3136 0 31 0V0C33.6864 0 35.7942 2.30443 35.5553 4.98019L33.7223 25.5099C33.5965 26.9196 32.4153 28 31 28V28C29.5847 28 28.4035 26.9196 28.2777 25.5099L26.4447 4.98019Z" fill="black"/>
</svg>
