<svg width="36" height="36" viewBox="0 0 36 36" fill="none" xmlns="http://www.w3.org/2000/svg">
<path fill-rule="evenodd" clip-rule="evenodd" d="M4.56721 17.5128C4.56721 24.8184 9.86401 29.796 15.8136 30.8256C15.9754 30.8537 16.1302 30.9133 16.269 31.0012C16.4078 31.089 16.5279 31.2033 16.6225 31.3376C16.7171 31.4719 16.7843 31.6235 16.8203 31.7837C16.8564 31.944 16.8605 32.1098 16.8324 32.2716C16.8044 32.4334 16.7447 32.5882 16.6569 32.727C16.569 32.8658 16.4547 32.9859 16.3204 33.0805C16.1861 33.1751 16.0345 33.2423 15.8743 33.2783C15.714 33.3144 15.5482 33.3185 15.3864 33.2904C8.40001 32.0808 2.06641 26.1912 2.06641 17.5128C2.06641 13.824 3.74401 10.9248 5.70241 8.72161C7.10641 7.14241 8.71201 5.85841 10.0032 4.87681H6.07681C5.75855 4.87681 5.45332 4.75038 5.22828 4.52533C5.00323 4.30029 4.87681 3.99507 4.87681 3.67681C4.87681 3.35855 5.00323 3.05332 5.22828 2.82828C5.45332 2.60324 5.75855 2.47681 6.07681 2.47681H13.2768C13.5951 2.47681 13.9003 2.60324 14.1253 2.82828C14.3504 3.05332 14.4768 3.35855 14.4768 3.67681V10.8768C14.4768 11.1951 14.3504 11.5003 14.1253 11.7253C13.9003 11.9504 13.5951 12.0768 13.2768 12.0768C12.9585 12.0768 12.6533 11.9504 12.4283 11.7253C12.2032 11.5003 12.0768 11.1951 12.0768 10.8768V6.44641L12.0744 6.45121C10.7016 7.48321 9.02641 8.74801 7.57441 10.3824C5.85841 12.312 4.56721 14.6448 4.56721 17.5104V17.5128ZM31.2264 18.4872C31.2264 11.2584 26.0424 6.31201 20.1696 5.20801C20.0059 5.18023 19.8494 5.12014 19.7092 5.03124C19.569 4.94234 19.4479 4.8264 19.353 4.69019C19.258 4.55399 19.1912 4.40024 19.1563 4.23793C19.1214 4.07561 19.1192 3.90797 19.1498 3.74479C19.1804 3.58161 19.2432 3.42616 19.3345 3.2875C19.4258 3.14885 19.5438 3.02976 19.6816 2.9372C19.8195 2.84464 19.9743 2.78045 20.1372 2.74838C20.3001 2.71631 20.4678 2.717 20.6304 2.75041C27.528 4.04641 33.7272 9.90241 33.7272 18.4872C33.7272 22.176 32.0496 25.0728 30.0912 27.2784C28.6872 28.8576 27.0816 30.1416 25.7904 31.1232H29.7168C30.0351 31.1232 30.3403 31.2496 30.5653 31.4747C30.7904 31.6997 30.9168 32.0049 30.9168 32.3232C30.9168 32.6415 30.7904 32.9467 30.5653 33.1717C30.3403 33.3968 30.0351 33.5232 29.7168 33.5232H22.5168C22.1985 33.5232 21.8933 33.3968 21.6683 33.1717C21.4432 32.9467 21.3168 32.6415 21.3168 32.3232V25.1232C21.3168 24.8049 21.4432 24.4997 21.6683 24.2747C21.8933 24.0496 22.1985 23.9232 22.5168 23.9232C22.8351 23.9232 23.1403 24.0496 23.3653 24.2747C23.5904 24.4997 23.7168 24.8049 23.7168 25.1232V29.5512H23.7216C25.092 28.5144 26.7696 27.252 28.2192 25.6152C29.9352 23.688 31.2264 21.3552 31.2264 18.4872Z" fill="black"/>
</svg>
